#N canvas 294 215 367 453 12;
#X obj 17 6 adc~;
#X floatatom 29 153 5 0 0 0 - - -, f 5;
#X floatatom 104 156 5 0 0 0 - - -, f 5;
#X floatatom 163 160 5 0 0 0 - - -, f 5;
#X obj 166 186 hsl 128 15 0 127 0 0 empty empty empty -2 -8 0 10 -262144
-1 -1 2634 1;
#X obj 163 230 change;
#X floatatom 163 254 5 0 0 0 - - -, f 5;
#X obj 14 180 hsl 128 15 0 127 0 0 empty empty empty -2 -8 0 10 -262144
-1 -1 3833 1;
#X obj 104 365 pack;
#X obj 164 325 t b f;
#X msg 136 300 0;
#X obj 163 277 sel 0;
#X obj 104 250 t f b;
#X msg 104 326 \$1 60;
#X obj 104 203 i;
#X obj 181 364 print;
#X obj 104 405 noteout;
#X obj 42 38 *~;
#X obj 69 10 tgl 15 0 empty empty empty 17 7 0 10 -262144 -1 -1 1 1
;
#X obj 42 79 *~ 1;
#X text 80 78 <- ganho do sinal;
#X obj 42 121 sigmund~ -npts 2048 pitch env notes;
#X obj 164 205 > 65;
#X connect 0 0 17 0;
#X connect 1 0 7 0;
#X connect 2 0 14 0;
#X connect 3 0 4 0;
#X connect 4 0 22 0;
#X connect 5 0 6 0;
#X connect 6 0 11 0;
#X connect 8 0 15 0;
#X connect 8 0 16 0;
#X connect 9 0 8 0;
#X connect 9 1 8 1;
#X connect 10 0 9 0;
#X connect 11 0 10 0;
#X connect 12 0 13 0;
#X connect 12 1 10 0;
#X connect 13 0 8 0;
#X connect 14 0 12 0;
#X connect 17 0 19 0;
#X connect 18 0 17 1;
#X connect 19 0 21 0;
#X connect 21 0 1 0;
#X connect 21 1 3 0;
#X connect 21 2 2 0;
#X connect 22 0 5 0;
